<svg width="110" height="24" viewBox="0 0 110 24" fill="none" xmlns="http://www.w3.org/2000/svg">
<path d="M0 15.6011L1.60349 14.0588C2.44612 15.6011 3.86415 16.3832 5.36395 16.3832C6.92655 16.3832 7.95319 15.4579 7.95319 14.3059C7.95319 13.5443 7.45959 12.8864 6.45339 12.3514C6.20659 12.2286 5.69254 12.002 4.9127 11.6731C4.15184 11.3237 3.55601 11.0357 3.16609 10.8091C1.6254 9.88375 0.864541 8.64847 0.864541 7.12667C0.864541 5.93379 1.29535 4.9251 2.18034 4.12253C3.06386 3.31997 4.21464 2.90918 5.63266 2.90918C7.54429 2.90918 9.08498 3.62988 10.2577 5.09029L8.79875 6.71589C7.95611 5.66626 6.90757 5.15169 5.65457 5.15169C4.33877 5.15169 3.39391 5.87239 3.39391 7.00387C3.39391 7.72457 3.82618 8.34148 4.66881 8.81513C4.93606 8.95839 5.49101 9.24638 6.37453 9.65862C7.25806 10.0489 7.87433 10.3589 8.24527 10.5635C9.78596 11.407 10.5673 12.6204 10.5673 14.1846C10.5673 15.4812 10.0737 16.5499 9.10835 17.3934C8.14304 18.2164 6.88858 18.6272 5.36833 18.6272C3.14565 18.6243 1.08944 17.5542 0 15.6011Z" fill="#1369E9"/>
<path d="M22.8137 8.708C23.8622 9.83948 24.3967 11.218 24.3967 12.8436C24.3967 14.4692 23.8622 15.8273 22.8137 16.9588C21.7651 18.0903 20.4508 18.6458 18.8677 18.6458C17.327 18.6458 16.0521 18.0493 15.0854 16.836V22.9466H12.8247V7.28999H15.0854V8.89512C16.093 7.64083 17.3665 7.02246 18.8882 7.02246C20.4712 7.021 21.7666 7.57651 22.8137 8.708ZM21.1284 10.1889C20.4712 9.46817 19.6081 9.09832 18.5596 9.09832C17.511 9.09832 16.648 9.46817 15.9908 10.1889C15.3541 10.9096 15.0255 11.7735 15.0255 12.8217C15.0255 13.8713 15.3541 14.7762 15.9908 15.4969C16.648 16.2176 17.511 16.567 18.5596 16.567C19.6081 16.567 20.4712 16.2176 21.1284 15.4969C21.7856 14.7762 22.1141 13.8713 22.1141 12.8217C22.1156 11.7735 21.787 10.9096 21.1284 10.1889Z" fill="#1369E9"/>
<path d="M26.6577 18.3767V7.28701H28.8161V8.87168C29.4733 7.61739 30.5219 6.99902 31.9603 6.99902C32.4335 6.99902 32.8643 7.06042 33.2761 7.18468L33.0702 9.38625C32.6803 9.24299 32.2685 9.18013 31.8581 9.18013C30.1319 9.18013 28.9184 10.373 28.9184 12.6988V18.3767H26.6577Z" fill="#1369E9"/>
<path d="M109.762 9.14453V18.6628H107.126V10.9572L109.762 9.14453Z" fill="#1369E9"/>
<path d="M108.444 7.55748C107.63 7.55748 106.972 6.89818 106.972 6.08391C106.972 5.26965 107.63 4.61035 108.444 4.61035C109.257 4.61035 109.916 5.26965 109.916 6.08391C109.916 6.89671 109.256 7.55748 108.444 7.55748Z" fill="#80BB01"/>
<path d="M101.394 8.48916H98.9621L101.066 13.8147H101.062L102.432 17.275H102.425L102.993 18.6915H105.591L101.394 8.48916ZM99.6893 4.12109H97.0753L91.3638 18.6886H93.9574L95.1052 15.8847L95.8982 13.8133H95.8938L96.164 13.113L99.6893 4.12109Z" fill="#1369E9"/>
<path d="M55.3765 13.8461V7.30273H57.6371V13.8241C57.6371 15.4907 58.6039 16.5607 60.2264 16.5607C61.8707 16.5607 62.8156 15.5316 62.8156 13.8241V7.30273H65.0967V13.8461C65.0967 16.8707 63.2669 18.66 60.2264 18.66C57.2662 18.66 55.3765 16.8093 55.3765 13.8461Z" fill="#1369E9"/>
<path d="M73.1109 16.7983C72.721 16.7983 72.3822 16.6595 72.1032 16.3876C71.8199 16.1156 71.6768 15.775 71.6768 15.3832V6.24219H69.5096V9.96703H68.0303V11.6833H69.5096V15.0543C69.5096 15.547 69.6045 16.0133 69.7944 16.4416C69.9842 16.8729 70.2457 17.2559 70.5669 17.5804C70.8882 17.902 71.2738 18.1579 71.7104 18.3421C72.1456 18.5263 72.6158 18.6184 73.1094 18.6184H74.821V16.7983H73.1109ZM72.7911 9.96703L73.7491 11.6833H74.8225V9.96703H72.7911Z" fill="#1369E9"/>
<path d="M77.4243 16.2514L78.8832 14.9342C79.5609 16.0248 80.6707 16.6212 81.7193 16.6212C82.7883 16.6212 83.5491 16.0043 83.5491 15.2427C83.5491 14.7076 83.241 14.2764 82.6028 13.9665C82.4173 13.8641 81.9661 13.6785 81.268 13.411C80.5889 13.123 80.1172 12.9168 79.8704 12.7736C78.6992 12.1567 78.1034 11.2518 78.1034 10.037C78.1034 9.11161 78.4524 8.34997 79.1315 7.75353C79.8296 7.15709 80.7554 6.84863 81.8858 6.84863C83.4688 6.84863 84.6809 7.42461 85.5236 8.5561L84.2078 9.9551C83.5506 9.15254 82.7488 8.74175 81.7821 8.74175C80.8577 8.74175 80.3027 9.2768 80.3027 9.9551C80.3027 10.4901 80.6109 10.9009 81.2271 11.1685L82.3575 11.6421C83.057 11.9301 83.5696 12.1567 83.9201 12.3409C85.1731 12.9987 85.8112 13.9255 85.8112 15.1389C85.8112 16.1066 85.4213 16.9282 84.6605 17.5875C83.8996 18.2454 82.8934 18.5743 81.6798 18.5743C79.9727 18.5757 78.3487 17.7951 77.4243 16.2514Z" fill="#1369E9"/>
<path d="M98.7914 15.9081C97.978 15.9081 97.3193 15.2488 97.3193 14.4345C97.3193 13.6202 97.978 12.9609 98.7914 12.9609C99.6048 12.9609 100.263 13.6202 100.263 14.4345C100.263 15.2488 99.6048 15.9081 98.7914 15.9081Z" fill="#FF7324"/>
<path d="M36.7116 8.33582L38.6746 9.46446C38.7814 9.52587 38.917 9.49511 38.9913 9.39682C39.8348 8.28086 41.0271 7.53964 42.3237 7.23615C42.4508 7.20642 42.5352 7.08358 42.5117 6.95523L42.1021 4.7189C42.0795 4.59765 41.9603 4.51545 41.839 4.54216C39.7881 4.98811 37.9056 6.18005 36.6315 8.00084C36.5575 8.11182 36.5945 8.268 36.7116 8.33582Z" fill="#FF7324"/>
<path d="M35.2282 12.1401L37.7539 11.7825C37.8444 11.7702 37.9183 11.7044 37.9451 11.6181L38.1629 10.8741C38.1937 10.7714 38.1485 10.6604 38.056 10.607L36.0626 9.46026C35.9352 9.38628 35.7728 9.44793 35.7256 9.58767L34.9734 11.8359C34.922 12.0003 35.0577 12.1647 35.2282 12.1401Z" fill="#FF7324"/>
<path d="M49.9027 5.12796C49.4012 4.67995 49.3601 3.9093 49.8081 3.40787L51.6577 1.34458C52.1057 0.843139 52.8764 0.802037 53.3778 1.25004C53.8792 1.69805 53.9203 2.4687 53.4723 2.97013L51.6228 5.03342C51.1727 5.53486 50.4041 5.57802 49.9027 5.12796Z" fill="#80BB01"/>
<path d="M43.6721 15.0278C42.5007 15.0278 41.5513 14.0784 41.5513 12.907C41.5513 11.7356 42.5007 10.7861 43.6721 10.7861C44.8435 10.7861 45.7929 11.7356 45.7929 12.907C45.7929 14.0784 44.8435 15.0278 43.6721 15.0278Z" fill="#80BB01"/>
<path d="M40.7296 18.2568C40.7891 18.1423 40.746 18.0016 40.6355 17.935C38.9501 16.9188 37.9555 15.1748 37.8256 13.3362C37.8154 13.2006 37.6962 13.0999 37.5626 13.1184L35.3123 13.4411C35.191 13.4595 35.1006 13.5685 35.1129 13.6918C35.3556 16.3783 36.8556 18.9047 39.3669 20.3549C39.482 20.4213 39.6283 20.3763 39.6896 20.2584L40.7296 18.2568Z" fill="#FF7324"/>
<path d="M43.4078 4.62297L43.8271 6.9041C43.8456 7.0089 43.936 7.08494 44.0428 7.09316C44.908 7.14865 45.7732 7.39731 46.5726 7.85765C47.8145 8.57203 48.6969 9.6773 49.1499 10.9342C49.2724 11.3328 49.4747 12.1183 49.5024 12.8279C49.526 14.0366 49.1745 15.2697 48.4008 16.3471C47.0698 18.2051 44.7646 19.0817 42.5831 18.6783C42.4775 18.6587 42.3704 18.7085 42.3209 18.8038L41.2466 20.8713C41.1783 21.0027 41.2456 21.1642 41.3885 21.2034C44.8576 22.155 48.6778 20.8099 50.7456 17.761C51.7727 16.2452 52.2505 14.5428 52.2379 12.8689C52.2385 12.8685 52.2392 12.8681 52.2399 12.8677C52.2399 12.2569 52.2399 11.237 51.6738 9.8833C50.9947 8.09513 49.7177 6.52257 47.929 5.49432C46.5726 4.71339 45.0889 4.34553 43.6298 4.34964C43.49 4.34964 43.3832 4.48117 43.4078 4.62297Z" fill="#80BB01"/>
</svg>
